<svg width="32" height="31" viewBox="0 0 32 31" fill="none" xmlns="http://www.w3.org/2000/svg">
  <rect width="32" height="31" rx="8" fill="black" fill-opacity="0.3"/>
  <path opacity="0.5" d="M28.9063 16.124L13.4889 23.9457C13.4172 23.9794 13.3358 23.9245 13.3369 23.8477L13.3997 19.5138L21.1277 15.596C21.1994 15.5624 21.2009 15.4637 21.1302 15.4205L13.5307 10.4731L13.5932 6.16121C13.5943 6.08441 13.6771 6.04055 13.7477 6.08373L28.9089 15.9485C28.9739 15.9968 28.9725 16.0955 28.9063 16.124Z" fill="#00B37E"/>
  <path opacity="0.5" d="M6.69327 12.3557L6.89454 7.46853C6.90076 7.38219 6.99196 7.33651 7.06085 7.38073L19.1245 15.1172C19.1934 15.1614 19.1908 15.264 19.1157 15.3061L14.8025 17.5609L6.69327 12.3557Z" fill="#00B37E"/>
  <path d="M6.80696 13.2048L14.0467 17.9648L6.13573 22.3431L6.65335 13.2898C6.65575 13.2071 6.74215 13.1592 6.80696 13.2048Z" fill="#00B37E"/>
</svg>
