<svg width="32" height="32" viewBox="0 0 32 32" fill="none" xmlns="http://www.w3.org/2000/svg">
  <path opacity="0.5" d="M31.8803 16.7987L12.146 26.8105C12.0542 26.8536 11.95 26.7833 11.9515 26.685L12.0318 21.1377L21.9236 16.1229C22.0154 16.0799 22.0173 15.9535 21.9269 15.8982L12.1995 9.56558L12.2794 4.04635C12.2809 3.94804 12.3869 3.89191 12.4773 3.94718L31.8835 16.574C31.9668 16.6359 31.965 16.7623 31.8803 16.7987Z" fill="#00B37E"/>
  <path opacity="0.5" d="M3.44749 11.9754L3.70512 5.71983C3.71307 5.60932 3.82981 5.55085 3.91799 5.60745L19.3595 15.5101C19.4476 15.5667 19.4443 15.698 19.3481 15.7519L13.8273 18.638L3.44749 11.9754Z" fill="#00B37E"/>
  <path d="M3.59291 13.0621L12.8597 19.1549L2.73374 24.7591L3.39629 13.1709C3.39935 13.065 3.50995 13.0038 3.59291 13.0621Z" fill="#00B37E"/>
</svg>
